REM DIRINDEX 1\4,1\2\5,1\2\6,1\2\7,1\3\8,1\3\9,1\3\10,1\3\11
REM DIRNAME folder01,folder02,folder03,folder04,folder05,folder06,folder07,folder08,folder09,folder10,folder11
TITLE ""
FILE "t_k_226-237.mp3" MP3
  TRACK 01 AUDIO
    TITLE "5:cjc108_0678"
    INDEX 01 00:00:00
  TRACK 02 AUDIO
    TITLE "0:"
    INDEX 01 00:01:07
  TRACK 03 AUDIO
    TITLE "6:cjc108_0679"
    INDEX 01 00:01:17
  TRACK 04 AUDIO
    TITLE "0:"
    INDEX 01 00:02:59
  TRACK 05 AUDIO
    TITLE "7:cjc108_0680"
    INDEX 01 00:03:08
  TRACK 06 AUDIO
    TITLE "0:"
    INDEX 01 00:08:40
  TRACK 07 AUDIO
    TITLE "5:cjc108_0681"
    INDEX 01 00:09:20
  TRACK 08 AUDIO
    TITLE "0:"
    INDEX 01 00:10:47
  TRACK 09 AUDIO
    TITLE "6:cjc108_0682"
    INDEX 01 00:10:57
  TRACK 10 AUDIO
    TITLE "0:"
    INDEX 01 00:11:62
  TRACK 11 AUDIO
    TITLE "7:cjc108_0683"
    INDEX 01 00:12:01
  TRACK 12 AUDIO
    TITLE "0:"
    INDEX 01 00:16:48
  TRACK 13 AUDIO
    TITLE "5:cjc108_0684"
    INDEX 01 00:17:35
  TRACK 14 AUDIO
    TITLE "0:"
    INDEX 01 00:18:62
  TRACK 15 AUDIO
    TITLE "6:cjc108_0685"
    INDEX 01 00:19:07
  TRACK 16 AUDIO
    TITLE "0:"
    INDEX 01 00:20:26
  TRACK 17 AUDIO
    TITLE "7:cjc108_0686"
    INDEX 01 00:20:43
  TRACK 18 AUDIO
    TITLE "0:"
    INDEX 01 00:25:29
  TRACK 19 AUDIO
    TITLE "5:cjc108_0687"
    INDEX 01 00:26:11
  TRACK 20 AUDIO
    TITLE "0:"
    INDEX 01 00:27:22
  TRACK 21 AUDIO
    TITLE "6:cjc108_0688"
    INDEX 01 00:27:38
  TRACK 22 AUDIO
    TITLE "0:"
    INDEX 01 00:30:06
  TRACK 23 AUDIO
    TITLE "7:cjc108_0689"
    INDEX 01 00:30:38
  TRACK 24 AUDIO
    TITLE "0:"
    INDEX 01 00:35:49
  TRACK 25 AUDIO
    TITLE "5:cjc108_0690"
    INDEX 01 00:36:29
  TRACK 26 AUDIO
    TITLE "0:"
    INDEX 01 00:37:50
  TRACK 27 AUDIO
    TITLE "6:cjc108_0691"
    INDEX 01 00:37:67
  TRACK 28 AUDIO
    TITLE "0:"
    INDEX 01 00:41:67
  TRACK 29 AUDIO
    TITLE "7:cjc108_0692"
    INDEX 01 00:42:16
  TRACK 30 AUDIO
    TITLE "0:"
    INDEX 01 00:46:31
  TRACK 31 AUDIO
    TITLE "5:cjc108_0693"
    INDEX 01 00:47:09
  TRACK 32 AUDIO
    TITLE "0:"
    INDEX 01 00:48:34
  TRACK 33 AUDIO
    TITLE "6:cjc108_0694"
    INDEX 01 00:48:57
  TRACK 34 AUDIO
    TITLE "0:"
    INDEX 01 00:50:01
  TRACK 35 AUDIO
    TITLE "7:cjc108_0695"
    INDEX 01 00:50:25
  TRACK 36 AUDIO
    TITLE "0:"
    INDEX 01 00:56:49
  TRACK 37 AUDIO
    TITLE "5:cjc108_0696"
    INDEX 01 00:57:31
  TRACK 38 AUDIO
    TITLE "0:"
    INDEX 01 00:58:56
  TRACK 39 AUDIO
    TITLE "6:cjc108_0697"
    INDEX 01 00:58:69
  TRACK 40 AUDIO
    TITLE "0:"
    INDEX 01 01:01:36
  TRACK 41 AUDIO
    TITLE "7:cjc108_0698"
    INDEX 01 01:01:62
  TRACK 42 AUDIO
    TITLE "0:"
    INDEX 01 01:07:43
  TRACK 43 AUDIO
    TITLE "5:cjc108_0699"
    INDEX 01 01:08:33
  TRACK 44 AUDIO
    TITLE "0:"
    INDEX 01 01:09:56
  TRACK 45 AUDIO
    TITLE "6:cjc108_0700"
    INDEX 01 01:10:02
  TRACK 46 AUDIO
    TITLE "0:"
    INDEX 01 01:12:52
  TRACK 47 AUDIO
    TITLE "7:cjc108_0701"
    INDEX 01 01:12:68
  TRACK 48 AUDIO
    TITLE "0:"
    INDEX 01 01:19:58
  TRACK 49 AUDIO
    TITLE "5:cjc108_0702"
    INDEX 01 01:20:44
  TRACK 50 AUDIO
    TITLE "0:"
    INDEX 01 01:21:70
  TRACK 51 AUDIO
    TITLE "6:cjc108_0703"
    INDEX 01 01:21:74
  TRACK 52 AUDIO
    TITLE "0:"
    INDEX 01 01:23:07
  TRACK 53 AUDIO
    TITLE "7:cjc108_0704"
    INDEX 01 01:23:22
  TRACK 54 AUDIO
    TITLE "0:"
    INDEX 01 01:29:64
  TRACK 55 AUDIO
    TITLE "5:cjc108_0705"
    INDEX 01 01:30:44
  TRACK 56 AUDIO
    TITLE "0:"
    INDEX 01 01:31:61
  TRACK 57 AUDIO
    TITLE "6:cjc108_0706"
    INDEX 01 01:31:73
  TRACK 58 AUDIO
    TITLE "0:"
    INDEX 01 01:34:38
  TRACK 59 AUDIO
    TITLE "7:cjc108_0707"
    INDEX 01 01:34:52
  TRACK 60 AUDIO
    TITLE "0:"
    INDEX 01 01:39:43
  TRACK 61 AUDIO
    TITLE "5:cjc108_0708"
    INDEX 01 01:40:27
  TRACK 62 AUDIO
    TITLE "0:"
    INDEX 01 01:41:44
  TRACK 63 AUDIO
    TITLE "6:cjc108_0709"
    INDEX 01 01:41:71
  TRACK 64 AUDIO
    TITLE "0:"
    INDEX 01 01:44:44
  TRACK 65 AUDIO
    TITLE "7:cjc108_0710"
    INDEX 01 01:44:73
  TRACK 66 AUDIO
    TITLE "0:"
    INDEX 01 01:52:02
  TRACK 67 AUDIO
    TITLE "5:cjc108_0711"
    INDEX 01 01:52:61
  TRACK 68 AUDIO
    TITLE "0:"
    INDEX 01 01:54:07
  TRACK 69 AUDIO
    TITLE "6:cjc108_0712"
    INDEX 01 01:54:19
  TRACK 70 AUDIO
    TITLE "0:"
    INDEX 01 01:57:37
  TRACK 71 AUDIO
    TITLE "7:cjc108_0713"
    INDEX 01 01:57:53
  TRACK 72 AUDIO
    TITLE "0:"
    INDEX 01 02:02:46
